<svg width="247" height="363" viewBox="0 0 247 363" fill="none" xmlns="http://www.w3.org/2000/svg">
<path d="M133.61 0.787598C115.078 0.787598 98.7182 4.55183 84.5299 12.0803C70.0521 19.3192 58.7593 28.4403 50.6517 39.4435V4.69662H0.703125V247.924C0.703125 269.931 5.3361 289.476 14.6019 306.56C23.8678 323.933 37.3321 337.542 54.9951 347.387C72.3685 357.232 93.2166 362.155 117.539 362.155C149.97 362.155 176.899 354.482 198.326 339.135C219.753 324.078 231.914 303.519 234.81 277.459H185.73C181.966 289.91 174.003 299.9 161.842 307.428C149.391 315.247 134.623 319.156 117.539 319.156C97.56 319.156 81.4895 313.075 69.3281 300.913C56.8772 288.752 50.6517 271.089 50.6517 247.924V207.966C59.0489 219.258 70.4864 228.814 84.9643 236.632C99.1526 244.16 115.368 247.924 133.61 247.924C154.458 247.924 173.569 242.713 190.942 232.288C208.026 221.575 221.635 206.807 231.77 187.986C241.615 168.875 246.537 147.303 246.537 123.27C246.537 99.237 241.615 77.9545 231.77 59.4229C221.635 40.8912 208.026 26.5582 190.942 16.4237C173.569 5.99962 154.458 0.787598 133.61 0.787598ZM50.6517 124.139C50.6517 107.634 54.1265 93.3011 61.0758 81.1397C67.7357 68.9783 76.5671 59.7124 87.5703 53.3422C98.5734 46.9719 110.445 43.7868 123.186 43.7868C135.926 43.7868 147.798 46.9719 158.801 53.3422C169.804 59.4229 178.781 68.5439 185.73 80.7053C192.39 92.5772 195.72 106.765 195.72 123.27C195.72 139.775 192.39 154.253 185.73 166.704C178.781 179.155 169.804 188.71 158.801 195.37C147.509 201.74 135.637 204.925 123.186 204.925C110.445 204.925 98.5734 201.74 87.5703 195.37C76.5671 189 67.7357 179.734 61.0758 167.572C54.1265 155.121 50.6517 140.644 50.6517 124.139Z" fill="white"/>
</svg>
