<svg width="488" height="362" viewBox="0 0 488 362" fill="none" xmlns="http://www.w3.org/2000/svg">
<path d="M121.284 199.266L189.041 4.2496H241.595L150.385 243.568H91.3152L0.539062 4.2496H53.528L121.284 199.266Z" fill="#272727"/>
<path d="M374.534 0.340576C356.002 0.340576 339.642 4.10481 325.454 11.6333C310.976 18.8722 299.683 27.9933 291.575 38.9964V4.2496H241.627V247.477C241.627 269.484 246.26 289.029 255.526 306.113C264.791 323.486 278.256 337.095 295.919 346.94C313.292 356.785 334.14 361.708 358.463 361.708C390.894 361.708 417.822 354.035 439.25 338.688C460.677 323.631 472.838 303.072 475.734 277.012H426.654C422.89 289.463 414.927 299.453 402.765 306.981C390.314 314.799 375.547 318.709 358.463 318.709C338.484 318.709 322.413 312.628 310.252 300.466C297.801 288.305 291.575 270.642 291.575 247.477V207.519C299.973 218.811 311.41 228.367 325.888 236.185C340.076 243.713 356.292 247.477 374.534 247.477C395.382 247.477 414.492 242.265 431.866 231.841C448.95 221.128 462.559 206.36 472.693 187.539C482.538 168.428 487.461 146.856 487.461 122.823C487.461 98.79 482.538 77.5075 472.693 58.9759C462.559 40.4442 448.95 26.1111 431.866 15.9766C414.492 5.5526 395.382 0.340576 374.534 0.340576ZM291.575 123.692C291.575 107.187 295.05 92.854 302 80.6926C308.659 68.5312 317.491 59.2654 328.494 52.8952C339.497 46.5249 351.369 43.3398 364.11 43.3398C376.85 43.3398 388.722 46.5249 399.725 52.8952C410.728 58.9759 419.704 68.0969 426.654 80.2583C433.314 92.1301 436.644 106.318 436.644 122.823C436.644 139.328 433.314 153.806 426.654 166.257C419.704 178.708 410.728 188.263 399.725 194.923C388.432 201.293 376.561 204.478 364.11 204.478C351.369 204.478 339.497 201.293 328.494 194.923C317.491 188.553 308.659 179.287 302 167.125C295.05 154.674 291.575 140.197 291.575 123.692Z" fill="#272727"/>
</svg>
